<svg xmlns="http://www.w3.org/2000/svg" xmlns:xlink="http://www.w3.org/1999/xlink" width="488" zoomAndPan="magnify" viewBox="0 0 366 263.250001" height="351" preserveAspectRatio="xMidYMid meet" version="1.2"><g id="2beb33636b"><path style=" stroke:none;fill-rule:nonzero;fill:#bb004b;fill-opacity:1;" d="M 256.570312 30.53125 C 281.078125 42.8125 306.777344 58.882812 314.148438 81.058594 C 321.59375 103.234375 310.707031 131.515625 297.789062 155.445312 C 284.9375 179.304688 270.054688 198.882812 251.023438 219.023438 C 231.996094 239.160156 208.824219 259.863281 185.160156 260.496094 C 161.5 261.054688 137.414062 241.546875 113.257812 223.089844 C 89.105469 204.566406 64.878906 187.164062 55.121094 163.515625 C 45.359375 139.863281 49.996094 110.039062 59.121094 81.480469 C 68.179688 52.917969 81.660156 25.621094 103.5 12.5 C 125.335938 -0.695312 155.460938 0.289062 182.140625 5.058594 C 208.824219 9.761719 232.066406 18.253906 256.570312 30.53125 "/></g></svg>