<svg xmlns="http://www.w3.org/2000/svg" xmlns:xlink="http://www.w3.org/1999/xlink" width="40" zoomAndPan="magnify" viewBox="0 0 30 30.000001" height="40" preserveAspectRatio="xMidYMid meet" version="1.2"><defs><clipPath id="a414edd8c1"><path d="M 3.386719 2.902344 L 26.671875 2.902344 L 26.671875 26.191406 L 3.386719 26.191406 Z M 3.386719 2.902344 "/></clipPath><clipPath id="51f8930dea"><path d="M 19.820312 25.824219 C 19.683594 25.859375 19.582031 25.910156 19.476562 25.921875 C 18.890625 25.972656 18.3125 26.023438 17.722656 26.066406 C 17.425781 26.085938 17.125 26.105469 16.828125 26.109375 C 16.503906 26.121094 16.179688 26.140625 15.863281 26.128906 C 15.554688 26.121094 15.25 26.105469 14.957031 26.046875 C 14.578125 25.980469 14.195312 25.980469 13.820312 25.917969 C 12.851562 25.753906 11.859375 25.796875 10.882812 25.730469 C 10.332031 25.691406 9.78125 25.605469 9.234375 25.527344 C 8.609375 25.449219 7.988281 25.355469 7.359375 25.265625 C 6.898438 25.203125 6.433594 25.140625 5.976562 25.078125 C 5.964844 25.078125 5.953125 25.070312 5.941406 25.070312 C 5.554688 24.902344 5.144531 24.773438 4.792969 24.554688 C 4.195312 24.179688 3.9375 23.578125 3.914062 22.871094 C 3.90625 22.628906 3.875 22.390625 3.875 22.144531 C 3.882812 21.808594 3.90625 21.476562 3.925781 21.144531 C 3.972656 20.15625 3.996094 19.167969 3.925781 18.179688 C 3.859375 17.292969 3.796875 16.410156 3.730469 15.523438 C 3.6875 14.953125 3.632812 14.390625 3.59375 13.820312 C 3.570312 13.445312 3.578125 13.066406 3.550781 12.691406 C 3.539062 12.476562 3.472656 12.269531 3.464844 12.058594 C 3.441406 11.546875 3.4375 11.027344 3.421875 10.507812 C 3.417969 10.308594 3.386719 10.105469 3.394531 9.90625 C 3.398438 9.59375 3.4375 9.28125 3.441406 8.96875 C 3.449219 8.605469 3.410156 8.242188 3.421875 7.886719 C 3.421875 7.542969 3.464844 7.207031 3.507812 6.863281 C 3.523438 6.742188 3.605469 6.636719 3.632812 6.519531 C 3.734375 5.929688 3.84375 5.34375 4.113281 4.796875 C 4.175781 4.679688 4.273438 4.574219 4.363281 4.480469 C 4.394531 4.449219 4.46875 4.464844 4.488281 4.464844 C 4.53125 4.386719 4.554688 4.304688 4.601562 4.265625 C 4.867188 4.058594 5.140625 3.910156 5.484375 3.871094 C 5.738281 3.839844 5.988281 3.730469 6.246094 3.667969 C 6.558594 3.589844 6.867188 3.503906 7.191406 3.460938 C 7.484375 3.421875 7.765625 3.339844 8.066406 3.316406 C 8.371094 3.289062 8.675781 3.214844 8.988281 3.191406 C 9.832031 3.128906 10.679688 3.085938 11.523438 3.035156 C 11.730469 3.023438 11.941406 3.035156 12.148438 3.039062 C 12.25 3.046875 12.355469 3.070312 12.464844 3.085938 C 12.515625 3.089844 12.5625 3.070312 12.613281 3.070312 C 12.757812 3.070312 12.910156 3.070312 13.058594 3.066406 C 13.339844 3.054688 13.625 3.023438 13.90625 3.023438 C 14.179688 3.023438 14.457031 3.039062 14.730469 3.054688 L 14.949219 3.054688 C 15.289062 3.039062 15.617188 3.039062 15.953125 3.023438 C 16.277344 3.003906 16.59375 2.960938 16.917969 2.941406 C 17.070312 2.929688 17.230469 2.929688 17.382812 2.960938 C 17.613281 3.003906 17.835938 3.027344 18.066406 2.960938 C 18.152344 2.933594 18.261719 2.976562 18.359375 2.992188 C 18.402344 2.996094 18.453125 3.007812 18.476562 2.992188 C 18.640625 2.867188 18.792969 2.898438 18.953125 3.003906 C 18.972656 3.015625 19.019531 2.984375 19.054688 2.984375 C 19.203125 2.984375 19.347656 2.984375 19.503906 2.992188 C 19.613281 2.996094 19.714844 3.035156 19.824219 3.046875 C 20.0625 3.078125 20.308594 3.128906 20.554688 3.128906 C 21.011719 3.132812 21.46875 3.152344 21.921875 3.253906 C 22.34375 3.347656 22.777344 3.347656 23.203125 3.421875 C 23.460938 3.464844 23.722656 3.546875 23.941406 3.679688 C 24.179688 3.816406 24.363281 4.042969 24.578125 4.230469 C 24.65625 4.296875 24.773438 4.347656 24.828125 4.433594 C 24.988281 4.671875 25.128906 4.921875 25.269531 5.171875 C 25.371094 5.355469 25.476562 5.542969 25.554688 5.730469 C 25.640625 5.949219 25.707031 6.175781 25.777344 6.40625 C 25.878906 6.769531 26.003906 7.128906 26.070312 7.507812 C 26.167969 8.03125 26.214844 8.570312 26.289062 9.101562 C 26.3125 9.277344 26.34375 9.449219 26.355469 9.625 C 26.394531 10.125 26.417969 10.621094 26.449219 11.121094 C 26.492188 11.738281 26.550781 12.351562 26.582031 12.972656 C 26.613281 13.566406 26.636719 14.164062 26.625 14.765625 C 26.605469 15.765625 26.558594 16.761719 26.507812 17.761719 C 26.476562 18.378906 26.4375 18.992188 26.375 19.605469 C 26.3125 20.21875 26.222656 20.824219 26.15625 21.4375 C 26.105469 21.863281 26.09375 22.289062 26.039062 22.707031 C 25.988281 23.089844 25.804688 23.425781 25.5625 23.707031 C 25.359375 23.945312 25.203125 24.214844 24.992188 24.445312 C 24.8125 24.652344 24.609375 24.859375 24.292969 24.867188 C 24.21875 24.867188 24.152344 24.941406 24.078125 24.976562 C 23.765625 25.117188 23.441406 25.234375 23.136719 25.386719 C 22.574219 25.660156 21.96875 25.703125 21.367188 25.730469 C 21.132812 25.742188 20.894531 25.722656 20.664062 25.742188 C 20.546875 25.746094 20.4375 25.804688 20.328125 25.828125 C 20.277344 25.839844 20.230469 25.835938 20.175781 25.839844 C 20.101562 25.847656 20.027344 25.867188 19.953125 25.859375 C 19.882812 25.847656 19.832031 25.824219 19.820312 25.824219 Z M 19.820312 25.824219 "/></clipPath><clipPath id="595b71306a"><path d="M 0.386719 0.902344 L 23.671875 0.902344 L 23.671875 24.191406 L 0.386719 24.191406 Z M 0.386719 0.902344 "/></clipPath><clipPath id="477e7f8c29"><path d="M 16.820312 23.824219 C 16.683594 23.859375 16.582031 23.910156 16.476562 23.921875 C 15.890625 23.972656 15.3125 24.023438 14.722656 24.066406 C 14.425781 24.085938 14.125 24.105469 13.828125 24.109375 C 13.503906 24.121094 13.179688 24.140625 12.863281 24.128906 C 12.554688 24.121094 12.25 24.105469 11.957031 24.046875 C 11.578125 23.980469 11.195312 23.980469 10.820312 23.917969 C 9.851562 23.753906 8.859375 23.796875 7.882812 23.730469 C 7.332031 23.691406 6.78125 23.605469 6.234375 23.527344 C 5.609375 23.449219 4.988281 23.355469 4.359375 23.265625 C 3.898438 23.203125 3.433594 23.140625 2.976562 23.078125 C 2.964844 23.078125 2.953125 23.070312 2.941406 23.070312 C 2.554688 22.902344 2.144531 22.773438 1.792969 22.554688 C 1.195312 22.179688 0.9375 21.578125 0.914062 20.871094 C 0.90625 20.628906 0.875 20.390625 0.875 20.144531 C 0.882812 19.808594 0.90625 19.476562 0.925781 19.144531 C 0.972656 18.15625 0.996094 17.167969 0.925781 16.179688 C 0.859375 15.292969 0.796875 14.410156 0.730469 13.523438 C 0.6875 12.953125 0.632812 12.390625 0.59375 11.820312 C 0.570312 11.445312 0.578125 11.066406 0.550781 10.691406 C 0.539062 10.476562 0.472656 10.269531 0.464844 10.058594 C 0.441406 9.546875 0.4375 9.027344 0.421875 8.507812 C 0.417969 8.308594 0.386719 8.105469 0.394531 7.90625 C 0.398438 7.59375 0.4375 7.28125 0.441406 6.96875 C 0.449219 6.605469 0.410156 6.242188 0.421875 5.886719 C 0.421875 5.542969 0.464844 5.207031 0.507812 4.863281 C 0.523438 4.742188 0.605469 4.636719 0.632812 4.519531 C 0.734375 3.929688 0.84375 3.34375 1.113281 2.796875 C 1.175781 2.679688 1.273438 2.574219 1.363281 2.480469 C 1.394531 2.449219 1.46875 2.464844 1.488281 2.464844 C 1.53125 2.386719 1.554688 2.304688 1.601562 2.265625 C 1.867188 2.058594 2.140625 1.910156 2.484375 1.871094 C 2.738281 1.839844 2.988281 1.730469 3.246094 1.667969 C 3.558594 1.589844 3.867188 1.503906 4.191406 1.460938 C 4.484375 1.421875 4.765625 1.339844 5.066406 1.316406 C 5.371094 1.289062 5.675781 1.214844 5.988281 1.191406 C 6.832031 1.128906 7.679688 1.085938 8.523438 1.035156 C 8.730469 1.023438 8.941406 1.035156 9.148438 1.039062 C 9.25 1.046875 9.355469 1.070312 9.464844 1.085938 C 9.515625 1.089844 9.5625 1.070312 9.613281 1.070312 C 9.757812 1.070312 9.910156 1.070312 10.058594 1.066406 C 10.339844 1.054688 10.625 1.023438 10.90625 1.023438 C 11.179688 1.023438 11.457031 1.039062 11.730469 1.054688 L 11.949219 1.054688 C 12.289062 1.039062 12.617188 1.039062 12.953125 1.023438 C 13.277344 1.003906 13.59375 0.960938 13.917969 0.941406 C 14.070312 0.929688 14.230469 0.929688 14.382812 0.960938 C 14.613281 1.003906 14.835938 1.027344 15.066406 0.960938 C 15.152344 0.933594 15.261719 0.976562 15.359375 0.992188 C 15.402344 0.996094 15.453125 1.007812 15.476562 0.992188 C 15.640625 0.867188 15.792969 0.898438 15.953125 1.003906 C 15.972656 1.015625 16.019531 0.984375 16.054688 0.984375 C 16.203125 0.984375 16.347656 0.984375 16.503906 0.992188 C 16.613281 0.996094 16.714844 1.035156 16.824219 1.046875 C 17.0625 1.078125 17.308594 1.128906 17.554688 1.128906 C 18.011719 1.132812 18.46875 1.152344 18.921875 1.253906 C 19.34375 1.347656 19.777344 1.347656 20.203125 1.421875 C 20.460938 1.464844 20.722656 1.546875 20.941406 1.679688 C 21.179688 1.816406 21.363281 2.042969 21.578125 2.230469 C 21.65625 2.296875 21.773438 2.347656 21.828125 2.433594 C 21.988281 2.671875 22.128906 2.921875 22.269531 3.171875 C 22.371094 3.355469 22.476562 3.542969 22.554688 3.730469 C 22.640625 3.949219 22.707031 4.175781 22.777344 4.40625 C 22.878906 4.769531 23.003906 5.128906 23.070312 5.507812 C 23.167969 6.03125 23.214844 6.570312 23.289062 7.101562 C 23.3125 7.277344 23.34375 7.449219 23.355469 7.625 C 23.394531 8.125 23.417969 8.621094 23.449219 9.121094 C 23.492188 9.738281 23.550781 10.351562 23.582031 10.972656 C 23.613281 11.566406 23.636719 12.164062 23.625 12.765625 C 23.605469 13.765625 23.558594 14.761719 23.507812 15.761719 C 23.476562 16.378906 23.4375 16.992188 23.375 17.605469 C 23.3125 18.21875 23.222656 18.824219 23.15625 19.4375 C 23.105469 19.863281 23.09375 20.289062 23.039062 20.707031 C 22.988281 21.089844 22.804688 21.425781 22.5625 21.707031 C 22.359375 21.945312 22.203125 22.214844 21.992188 22.445312 C 21.8125 22.652344 21.609375 22.859375 21.292969 22.867188 C 21.21875 22.867188 21.152344 22.941406 21.078125 22.976562 C 20.765625 23.117188 20.441406 23.234375 20.136719 23.386719 C 19.574219 23.660156 18.96875 23.703125 18.367188 23.730469 C 18.132812 23.742188 17.894531 23.722656 17.664062 23.742188 C 17.546875 23.746094 17.4375 23.804688 17.328125 23.828125 C 17.277344 23.839844 17.230469 23.835938 17.175781 23.839844 C 17.101562 23.847656 17.027344 23.867188 16.953125 23.859375 C 16.882812 23.847656 16.832031 23.824219 16.820312 23.824219 Z M 16.820312 23.824219 "/></clipPath><clipPath id="453d1e45de"><rect x="0" width="24" y="0" height="25"/></clipPath><clipPath id="938bf77510"><path d="M 3.386719 2.902344 L 26.613281 2.902344 L 26.613281 26.128906 L 3.386719 26.128906 Z M 3.386719 2.902344 "/></clipPath><clipPath id="f594afc66b"><path d="M 19.820312 25.824219 C 19.683594 25.859375 19.582031 25.910156 19.476562 25.921875 C 18.890625 25.972656 18.3125 26.023438 17.722656 26.066406 C 17.425781 26.085938 17.125 26.105469 16.828125 26.109375 C 16.503906 26.121094 16.179688 26.140625 15.863281 26.128906 C 15.554688 26.121094 15.25 26.105469 14.957031 26.046875 C 14.578125 25.980469 14.195312 25.980469 13.820312 25.917969 C 12.851562 25.753906 11.859375 25.796875 10.882812 25.730469 C 10.332031 25.691406 9.78125 25.605469 9.234375 25.527344 C 8.609375 25.449219 7.988281 25.355469 7.359375 25.265625 C 6.898438 25.203125 6.433594 25.140625 5.976562 25.078125 C 5.964844 25.078125 5.953125 25.070312 5.941406 25.070312 C 5.554688 24.902344 5.144531 24.773438 4.792969 24.554688 C 4.195312 24.179688 3.9375 23.578125 3.914062 22.871094 C 3.90625 22.628906 3.875 22.390625 3.875 22.144531 C 3.882812 21.808594 3.90625 21.476562 3.925781 21.144531 C 3.972656 20.15625 3.996094 19.167969 3.925781 18.179688 C 3.859375 17.292969 3.796875 16.410156 3.730469 15.523438 C 3.6875 14.953125 3.632812 14.390625 3.59375 13.820312 C 3.570312 13.445312 3.578125 13.066406 3.550781 12.691406 C 3.539062 12.476562 3.472656 12.269531 3.464844 12.058594 C 3.441406 11.546875 3.4375 11.027344 3.421875 10.507812 C 3.417969 10.308594 3.386719 10.105469 3.394531 9.90625 C 3.398438 9.59375 3.4375 9.28125 3.441406 8.96875 C 3.449219 8.605469 3.410156 8.242188 3.421875 7.886719 C 3.421875 7.542969 3.464844 7.207031 3.507812 6.863281 C 3.523438 6.742188 3.605469 6.636719 3.632812 6.519531 C 3.734375 5.929688 3.84375 5.34375 4.113281 4.796875 C 4.175781 4.679688 4.273438 4.574219 4.363281 4.480469 C 4.394531 4.449219 4.46875 4.464844 4.488281 4.464844 C 4.53125 4.386719 4.554688 4.304688 4.601562 4.265625 C 4.867188 4.058594 5.140625 3.910156 5.484375 3.871094 C 5.738281 3.839844 5.988281 3.730469 6.246094 3.667969 C 6.558594 3.589844 6.867188 3.503906 7.191406 3.460938 C 7.484375 3.421875 7.765625 3.339844 8.066406 3.316406 C 8.371094 3.289062 8.675781 3.214844 8.988281 3.191406 C 9.832031 3.128906 10.679688 3.085938 11.523438 3.035156 C 11.730469 3.023438 11.941406 3.035156 12.148438 3.039062 C 12.25 3.046875 12.355469 3.070312 12.464844 3.085938 C 12.515625 3.089844 12.5625 3.070312 12.613281 3.070312 C 12.757812 3.070312 12.910156 3.070312 13.058594 3.066406 C 13.339844 3.054688 13.625 3.023438 13.90625 3.023438 C 14.179688 3.023438 14.457031 3.039062 14.730469 3.054688 L 14.949219 3.054688 C 15.289062 3.039062 15.617188 3.039062 15.953125 3.023438 C 16.277344 3.003906 16.59375 2.960938 16.917969 2.941406 C 17.070312 2.929688 17.230469 2.929688 17.382812 2.960938 C 17.613281 3.003906 17.835938 3.027344 18.066406 2.960938 C 18.152344 2.933594 18.261719 2.976562 18.359375 2.992188 C 18.402344 2.996094 18.453125 3.007812 18.476562 2.992188 C 18.640625 2.867188 18.792969 2.898438 18.953125 3.003906 C 18.972656 3.015625 19.019531 2.984375 19.054688 2.984375 C 19.203125 2.984375 19.347656 2.984375 19.503906 2.992188 C 19.613281 2.996094 19.714844 3.035156 19.824219 3.046875 C 20.0625 3.078125 20.308594 3.128906 20.554688 3.128906 C 21.011719 3.132812 21.46875 3.152344 21.921875 3.253906 C 22.34375 3.347656 22.777344 3.347656 23.203125 3.421875 C 23.460938 3.464844 23.722656 3.546875 23.941406 3.679688 C 24.179688 3.816406 24.363281 4.042969 24.578125 4.230469 C 24.65625 4.296875 24.773438 4.347656 24.828125 4.433594 C 24.988281 4.671875 25.128906 4.921875 25.269531 5.171875 C 25.371094 5.355469 25.476562 5.542969 25.554688 5.730469 C 25.640625 5.949219 25.707031 6.175781 25.777344 6.40625 C 25.878906 6.769531 26.003906 7.128906 26.070312 7.507812 C 26.167969 8.03125 26.214844 8.570312 26.289062 9.101562 C 26.3125 9.277344 26.34375 9.449219 26.355469 9.625 C 26.394531 10.125 26.417969 10.621094 26.449219 11.121094 C 26.492188 11.738281 26.550781 12.351562 26.582031 12.972656 C 26.613281 13.566406 26.636719 14.164062 26.625 14.765625 C 26.605469 15.765625 26.558594 16.761719 26.507812 17.761719 C 26.476562 18.378906 26.4375 18.992188 26.375 19.605469 C 26.3125 20.21875 26.222656 20.824219 26.15625 21.4375 C 26.105469 21.863281 26.09375 22.289062 26.039062 22.707031 C 25.988281 23.089844 25.804688 23.425781 25.5625 23.707031 C 25.359375 23.945312 25.203125 24.214844 24.992188 24.445312 C 24.8125 24.652344 24.609375 24.859375 24.292969 24.867188 C 24.21875 24.867188 24.152344 24.941406 24.078125 24.976562 C 23.765625 25.117188 23.441406 25.234375 23.136719 25.386719 C 22.574219 25.660156 21.96875 25.703125 21.367188 25.730469 C 21.132812 25.742188 20.894531 25.722656 20.664062 25.742188 C 20.546875 25.746094 20.4375 25.804688 20.328125 25.828125 C 20.277344 25.839844 20.230469 25.835938 20.175781 25.839844 C 20.101562 25.847656 20.027344 25.867188 19.953125 25.859375 C 19.882812 25.847656 19.832031 25.824219 19.820312 25.824219 Z M 19.820312 25.824219 "/></clipPath><clipPath id="983da9f14d"><path d="M 5.050781 7 L 24.949219 7 L 24.949219 22.054688 L 5.050781 22.054688 Z M 5.050781 7 "/></clipPath><clipPath id="645e210efd"><path d="M 23.542969 10.445312 C 19.527344 11.265625 16.824219 16.496094 15.671875 18.726562 C 15.457031 19.144531 15.285156 19.476562 15.148438 19.699219 C 14.179688 21.285156 13.328125 22.03125 12.488281 22.03125 C 12.425781 22.03125 12.363281 22.027344 12.300781 22.019531 C 11.855469 21.960938 11.253906 21.671875 10.933594 20.621094 C 10.492188 19.167969 8.261719 16.234375 6.757812 15.792969 C 5.53125 15.433594 4.863281 14.347656 5.105469 13.15625 C 5.4375 11.585938 7.003906 10.949219 8.304688 11.144531 C 9.710938 11.359375 11.164062 12.816406 12.015625 13.886719 C 12.175781 14.089844 12.484375 14.078125 12.628906 13.859375 C 15.769531 9.121094 20.109375 7.132812 21.535156 7.066406 C 22.535156 6.949219 23.289062 6.992188 23.839844 7.210938 C 24.464844 7.460938 24.863281 7.957031 24.9375 8.578125 C 25.035156 9.460938 24.441406 10.261719 23.542969 10.445312 Z M 23.542969 10.445312 "/></clipPath><clipPath id="f35c68a929"><path d="M 0.0507812 0 L 19.949219 0 L 19.949219 15.054688 L 0.0507812 15.054688 Z M 0.0507812 0 "/></clipPath><clipPath id="43b9a5f807"><path d="M 18.542969 3.445312 C 14.527344 4.265625 11.824219 9.496094 10.671875 11.726562 C 10.457031 12.144531 10.285156 12.476562 10.148438 12.699219 C 9.179688 14.285156 8.328125 15.03125 7.488281 15.03125 C 7.425781 15.03125 7.363281 15.027344 7.300781 15.019531 C 6.855469 14.960938 6.253906 14.671875 5.933594 13.621094 C 5.492188 12.167969 3.261719 9.234375 1.757812 8.792969 C 0.53125 8.433594 -0.136719 7.347656 0.105469 6.15625 C 0.4375 4.585938 2.003906 3.949219 3.304688 4.144531 C 4.710938 4.359375 6.164062 5.816406 7.015625 6.886719 C 7.175781 7.089844 7.484375 7.078125 7.628906 6.859375 C 10.769531 2.121094 15.109375 0.132812 16.535156 0.0664062 C 17.535156 -0.0507812 18.289062 -0.0078125 18.839844 0.210938 C 19.464844 0.460938 19.863281 0.957031 19.9375 1.578125 C 20.035156 2.460938 19.441406 3.261719 18.542969 3.445312 Z M 18.542969 3.445312 "/></clipPath><clipPath id="baea550458"><rect x="0" width="20" y="0" height="16"/></clipPath></defs><g id="459b8e77fd"><g clip-rule="nonzero" clip-path="url(#a414edd8c1)"><g clip-rule="nonzero" clip-path="url(#51f8930dea)"><g transform="matrix(1,0,0,1,3,2)"><g clip-path="url(#453d1e45de)"><g clip-rule="nonzero" clip-path="url(#595b71306a)"><g clip-rule="nonzero" clip-path="url(#477e7f8c29)"><path style=" stroke:none;fill-rule:nonzero;fill:#ffffff;fill-opacity:1;" d="M 0.386719 0.902344 L 23.613281 0.902344 L 23.613281 24.128906 L 0.386719 24.128906 Z M 0.386719 0.902344 "/></g></g></g></g></g></g><g clip-rule="nonzero" clip-path="url(#938bf77510)"><g clip-rule="nonzero" clip-path="url(#f594afc66b)"><path style="fill:none;stroke-width:12;stroke-linecap:butt;stroke-linejoin:miter;stroke:#53240c;stroke-opacity:1;stroke-miterlimit:4;" d="M 22.64132 31.580032 C 22.452952 31.62847 22.313022 31.698435 22.167709 31.714581 C 21.360418 31.784546 20.56389 31.854512 19.751216 31.913713 C 19.342188 31.940623 18.927779 31.967532 18.518751 31.972914 C 18.072049 31.98906 17.625348 32.01597 17.189411 31.999824 C 16.764237 31.98906 16.344445 31.967532 15.940799 31.886803 C 15.418751 31.79531 14.89132 31.79531 14.374654 31.709199 C 13.039931 31.483157 11.672917 31.542359 10.327431 31.450866 C 9.568577 31.397046 8.809723 31.278643 8.056251 31.171005 C 7.19514 31.063366 6.33941 30.934199 5.472917 30.810414 C 4.837848 30.724303 4.197397 30.638192 3.567709 30.552081 C 3.551563 30.552081 3.535417 30.541317 3.519272 30.541317 C 2.986459 30.309893 2.421355 30.132289 1.93698 29.8309 C 1.113542 29.314234 0.758334 28.485414 0.726042 27.511282 C 0.715278 27.177602 0.672223 26.849303 0.672223 26.510241 C 0.682987 26.047393 0.715278 25.589928 0.742188 25.132463 C 0.806772 23.770831 0.839063 22.409199 0.742188 21.047567 C 0.650695 19.825866 0.564584 18.609546 0.473091 17.387845 C 0.41389 16.602081 0.338542 15.827081 0.284723 15.041317 C 0.252431 14.52465 0.263195 14.002602 0.225522 13.485935 C 0.209376 13.189928 0.117883 12.904685 0.107119 12.61406 C 0.0748271 11.909025 0.0694451 11.193227 0.0479174 10.477428 C 0.0425354 10.202949 -0.000520133 9.923088 0.0102438 9.648609 C 0.0156257 9.218053 0.0694451 8.787497 0.0748271 8.356942 C 0.085591 7.856421 0.0317715 7.3559 0.0479174 6.866143 C 0.0479174 6.392532 0.107119 5.929685 0.16632 5.456074 C 0.187848 5.289234 0.300869 5.143921 0.338542 4.982463 C 0.478473 4.169789 0.629167 3.362497 1.000522 2.609025 C 1.086633 2.447567 1.221181 2.302254 1.344966 2.173088 C 1.388022 2.130032 1.490278 2.15156 1.517188 2.15156 C 1.57639 2.043921 1.608681 1.9309 1.673265 1.877081 C 2.039237 1.591838 2.415973 1.387324 2.889584 1.333504 C 3.23941 1.290449 3.583855 1.139754 3.939063 1.053643 C 4.369619 0.946004 4.794792 0.827602 5.241494 0.7684 C 5.64514 0.714581 6.03264 0.60156 6.447049 0.569268 C 6.866841 0.531595 7.286633 0.429338 7.717188 0.397046 C 8.879688 0.310935 10.04757 0.251733 11.21007 0.181768 C 11.495313 0.165622 11.785938 0.181768 12.071181 0.18715 C 12.211112 0.197914 12.356424 0.230206 12.507119 0.251733 C 12.577084 0.257115 12.641667 0.230206 12.711633 0.230206 C 12.910765 0.230206 13.120661 0.230206 13.325174 0.224824 C 13.712674 0.208678 14.105556 0.165622 14.493056 0.165622 C 14.869792 0.165622 15.251911 0.18715 15.628647 0.208678 L 15.930036 0.208678 C 16.398265 0.18715 16.850348 0.18715 17.313195 0.165622 C 17.759897 0.138713 18.195834 0.0795113 18.642536 0.0526015 C 18.852431 0.0364557 19.073091 0.0364557 19.282987 0.0795113 C 19.600522 0.138713 19.907293 0.171004 20.224827 0.0795113 C 20.34323 0.0418376 20.493924 0.101039 20.628473 0.122567 C 20.687674 0.127949 20.75764 0.144095 20.789931 0.122567 C 21.015973 -0.0496554 21.225869 -0.00659986 21.446529 0.138713 C 21.473438 0.154858 21.538022 0.111803 21.586459 0.111803 C 21.790973 0.111803 21.990105 0.111803 22.205383 0.122567 C 22.356077 0.127949 22.496008 0.181768 22.646702 0.197914 C 22.975001 0.24097 23.314063 0.310935 23.653126 0.310935 C 24.282813 0.316317 24.912501 0.343227 25.536806 0.483157 C 26.118056 0.612324 26.715452 0.612324 27.302084 0.714581 C 27.657293 0.773782 28.017883 0.886803 28.319272 1.069789 C 28.64757 1.258157 28.900522 1.57031 29.196529 1.828643 C 29.304168 1.920136 29.465626 1.990102 29.540973 2.108504 C 29.761633 2.436803 29.955383 2.781247 30.149133 3.125692 C 30.289063 3.378643 30.434376 3.636977 30.542015 3.89531 C 30.660418 4.196699 30.751911 4.508852 30.848786 4.826386 C 30.988716 5.326907 31.160938 5.822046 31.252432 6.344095 C 31.38698 7.065275 31.451563 7.807984 31.55382 8.539928 C 31.586112 8.782115 31.629168 9.018921 31.645313 9.261109 C 31.699133 9.949997 31.731425 10.633504 31.77448 11.322393 C 31.833682 12.172741 31.914411 13.017706 31.957466 13.873435 C 32.000522 14.691491 32.032813 15.514928 32.016668 16.343748 C 31.989758 17.721525 31.925175 19.093921 31.855209 20.471699 C 31.812154 21.322046 31.758334 22.167011 31.672223 23.011977 C 31.586112 23.856942 31.462327 24.691143 31.370834 25.536109 C 31.300869 26.122741 31.284723 26.709373 31.209376 27.285241 C 31.139411 27.812671 30.886459 28.275518 30.552779 28.663018 C 30.272918 28.991317 30.05764 29.362671 29.767015 29.680206 C 29.519445 29.965449 29.239584 30.250692 28.803647 30.261456 C 28.70139 30.261456 28.609897 30.363713 28.50764 30.41215 C 28.077084 30.6059 27.630383 30.767359 27.210591 30.977255 C 26.435591 31.353991 25.60139 31.413192 24.77257 31.450866 C 24.449654 31.467012 24.121355 31.440102 23.80382 31.467012 C 23.642362 31.472393 23.491668 31.553123 23.340973 31.585414 C 23.271008 31.60156 23.206425 31.596178 23.131077 31.60156 C 23.02882 31.612324 22.926563 31.639234 22.824306 31.62847 C 22.727431 31.612324 22.657466 31.580032 22.64132 31.580032 Z M 22.64132 31.580032 " transform="matrix(0.725806,0,0,0.725806,3.387096,2.903228)"/></g></g><g clip-rule="nonzero" clip-path="url(#983da9f14d)"><g clip-rule="nonzero" clip-path="url(#645e210efd)"><g transform="matrix(1,0,0,1,5,7)"><g clip-path="url(#baea550458)"><g clip-rule="nonzero" clip-path="url(#f35c68a929)"><g clip-rule="nonzero" clip-path="url(#43b9a5f807)"><path style=" stroke:none;fill-rule:nonzero;fill:#6b8e23;fill-opacity:1;" d="M 0.0507812 0 L 19.949219 0 L 19.949219 15.015625 L 0.0507812 15.015625 Z M 0.0507812 0 "/></g></g></g></g></g></g></g></svg>